<svg width="21" height="24" viewBox="0 0 21 24" fill="none" xmlns="http://www.w3.org/2000/svg">
<path d="M0 20.6038V18H2.63208V10.0189C2.63208 8.32076 3.13679 6.76887 4.14623 5.36321C5.15566 3.95755 6.50943 3.04717 8.20755 2.63208V1.95283C8.20755 1.38679 8.40566 0.919811 8.80189 0.551887C9.19811 0.183962 9.66981 0 10.217 0C10.7641 0 11.2358 0.183962 11.6321 0.551887C12.0283 0.919811 12.2264 1.38679 12.2264 1.95283V2.63208C13.9434 3.0283 15.316 3.92925 16.3443 5.33491C17.3726 6.74057 17.8868 8.30189 17.8868 10.0189V18H20.4623V20.6038H0ZM10.2453 24C9.5849 24 9.00472 23.7594 8.50472 23.2783C8.00472 22.7972 7.75472 22.217 7.75472 21.5377H12.7075C12.7075 22.2358 12.4623 22.8208 11.9717 23.2925C11.4811 23.7642 10.9057 24 10.2453 24Z" fill="#C5CED7"/>
</svg>
