<svg width="24" height="24" viewBox="0 0 24 24" fill="none" xmlns="http://www.w3.org/2000/svg">
<path d="M8.87748 24L8.28938 20.2135C8.028 20.1376 7.73862 20.0047 7.42124 19.8149C7.10385 19.6251 6.84247 19.4448 6.63711 19.274L3.16453 20.8968L0 15.2028L3.16453 12.8683C3.14586 12.7734 3.13652 12.6358 3.13652 12.4555V11.6014C3.13652 11.4401 3.14586 11.293 3.16453 11.1601L0 8.76868L3.16453 3.13167L6.69312 4.75445C6.87981 4.62159 7.13186 4.46026 7.44924 4.27046C7.76663 4.08066 8.04667 3.94781 8.28938 3.87189L8.87748 0H15.1225L15.6826 3.84342C15.9627 3.91934 16.2567 4.0522 16.5648 4.24199C16.8728 4.43179 17.1295 4.60261 17.3349 4.75445L20.8635 3.13167L24 8.76868L20.7795 11.0747C20.7981 11.2266 20.8215 11.3879 20.8495 11.5587C20.8775 11.7295 20.8915 11.8814 20.8915 12.0142C20.8915 12.1471 20.8775 12.2942 20.8495 12.4555C20.8215 12.6168 20.7981 12.7639 20.7795 12.8968L24 15.2028L20.8075 20.8968L17.3349 19.274C17.1295 19.4448 16.8635 19.6299 16.5368 19.8292C16.21 20.0285 15.9347 20.1566 15.7106 20.2135L15.1225 24H8.87748ZM11.958 15.6299C12.9475 15.6299 13.7876 15.2788 14.4784 14.5765C15.1692 13.8743 15.5146 13.0202 15.5146 12.0142C15.5146 11.0273 15.1692 10.1779 14.4784 9.46619C13.7876 8.75445 12.9475 8.39858 11.958 8.39858C10.9498 8.39858 10.105 8.75445 9.42357 9.46619C8.74212 10.1779 8.4014 11.0273 8.4014 12.0142C8.4014 13.0202 8.74212 13.8743 9.42357 14.5765C10.105 15.2788 10.9498 15.6299 11.958 15.6299Z" fill="#C5CED7"/>
</svg>
