<svg width="34" height="28" viewBox="0 0 34 28" fill="none" xmlns="http://www.w3.org/2000/svg">
<path d="M5.67957 28C5.12729 28 4.67957 27.5523 4.67957 27V15.207C4.67957 14.3758 3.72445 13.9074 3.06729 14.4163L2.52778 14.8341C2.08382 15.1779 1.44389 15.0889 1.11065 14.637L0.576738 13.9129C0.25558 13.4774 0.339152 12.8654 0.765325 12.5319L4.29583 9.76924C4.53805 9.5797 4.67957 9.28925 4.67957 8.98169V5.95641C4.67957 5.40412 5.12729 4.95641 5.67957 4.95641H6.85924C7.27073 4.95641 7.6043 5.28998 7.6043 5.70146C7.6043 6.31927 8.31297 6.66866 8.80304 6.29246L16.3883 0.46955C16.7488 0.19287 17.2504 0.193957 17.6096 0.472198L33.2201 12.5637C33.6525 12.8986 33.7356 13.5189 33.4065 13.9558L32.8586 14.6835C32.5217 15.1307 31.8833 15.2143 31.4427 14.8688L30.9375 14.4727C30.2812 13.9581 29.3204 14.4256 29.3204 15.2596V27C29.3204 27.5523 28.8727 28 28.3204 28H20.8151C20.2628 28 19.8151 27.5523 19.8151 27V20.1598C19.8151 19.6076 19.3673 19.1598 18.8151 19.1598H14.9656C14.4133 19.1598 13.9656 19.6076 13.9656 20.1598V27C13.9656 27.5523 13.5179 28 12.9656 28H5.67957Z" fill="#C5CED7"/>
</svg>
