<svg width="18" height="24" viewBox="0 0 18 24" fill="none" xmlns="http://www.w3.org/2000/svg">
<path d="M8.6116 24C7.98757 24 7.43486 23.7431 6.95346 23.2292C6.47207 22.7154 6.23137 22.1041 6.23137 21.3953H10.9918C10.9918 22.1041 10.7511 22.7154 10.2697 23.2292C9.78835 23.7431 9.23564 24 8.6116 24ZM4.14532 19.5349V17.701H13.0779V19.5349H4.14532Z" fill="#C5CED7"/>
<path d="M1.17674 12.7442C1.96124 13.9934 2.98643 15.0343 4.25233 15.8671H12.9709C14.2903 15.0343 15.3333 13.9889 16.1 12.7309C16.8667 11.4729 17.25 10.0819 17.25 8.55814C17.25 6.23699 16.3942 4.23034 14.6826 2.53821C12.9709 0.846069 10.9473 0 8.61163 0C6.25814 0 4.2345 0.846069 2.5407 2.53821C0.846899 4.23034 0 6.23699 0 8.55814C0 10.0997 0.392248 11.495 1.17674 12.7442Z" fill="#C5CED7"/>
</svg>