<svg width="24" height="24" viewBox="0 0 24 24" fill="none" xmlns="http://www.w3.org/2000/svg">
<path d="M11.987 4.70639C11.6576 4.70639 11.3803 4.59372 11.1549 4.36836C10.9296 4.14301 10.8169 3.86566 10.8169 3.53629V1.1961C10.8169 0.866739 10.9296 0.585049 11.1549 0.351029C11.3803 0.11701 11.6576 0 11.987 0C12.3164 0 12.5981 0.11701 12.8321 0.351029C13.0661 0.585049 13.1831 0.866739 13.1831 1.1961V3.53629C13.1831 3.86566 13.0661 4.14301 12.8321 4.36836C12.5981 4.59372 12.3164 4.70639 11.987 4.70639ZM17.1614 6.83857C16.9187 6.63055 16.7974 6.36186 16.7974 6.0325C16.7974 5.70314 16.9187 5.42579 17.1614 5.20043L18.7996 3.53629C18.9902 3.32828 19.2589 3.22427 19.6056 3.22427C19.9523 3.22427 20.2384 3.32828 20.4637 3.53629C20.6891 3.76165 20.8017 4.039 20.8017 4.36836C20.8017 4.69773 20.6891 4.96641 20.4637 5.17443L18.7996 6.83857C18.5742 7.08126 18.2969 7.2026 17.9675 7.2026C17.6381 7.2026 17.3694 7.08126 17.1614 6.83857ZM20.4637 13.1831C20.1343 13.1831 19.857 13.0704 19.6316 12.8451C19.4063 12.6197 19.2936 12.3424 19.2936 12.013C19.2936 11.6836 19.4063 11.402 19.6316 11.1679C19.857 10.9339 20.1343 10.8169 20.4637 10.8169H22.8039C23.1333 10.8169 23.415 10.9339 23.649 11.1679C23.883 11.402 24 11.6836 24 12.013C24 12.3424 23.883 12.6197 23.649 12.8451C23.415 13.0704 23.1333 13.1831 22.8039 13.1831H20.4637ZM11.987 24C11.6576 24 11.3803 23.8873 11.1549 23.662C10.9296 23.4366 10.8169 23.1593 10.8169 22.8299V20.4897C10.8169 20.1603 10.9296 19.8787 11.1549 19.6446C11.3803 19.4106 11.6576 19.2936 11.987 19.2936C12.3164 19.2936 12.5981 19.4106 12.8321 19.6446C13.0661 19.8787 13.1831 20.1603 13.1831 20.4897V22.8299C13.1831 23.1593 13.0661 23.4366 12.8321 23.662C12.5981 23.8873 12.3164 24 11.987 24ZM5.20043 6.83857L3.53629 5.20043C3.29361 4.99242 3.17226 4.72373 3.17226 4.39437C3.17226 4.06501 3.29361 3.77898 3.53629 3.53629C3.76165 3.31094 4.03467 3.19827 4.35536 3.19827C4.67606 3.19827 4.94908 3.31094 5.17443 3.53629L6.83857 5.20043C7.08126 5.44312 7.2026 5.72914 7.2026 6.05851C7.2026 6.38787 7.08126 6.65656 6.83857 6.86457C6.63055 7.10726 6.35753 7.2286 6.0195 7.2286C5.68147 7.2286 5.40845 7.09859 5.20043 6.83857ZM18.7996 20.4637L17.1354 18.7996C16.8927 18.5915 16.7757 18.3185 16.7844 17.9805C16.7931 17.6425 16.9187 17.3608 17.1614 17.1354C17.3868 16.9101 17.6598 16.7974 17.9805 16.7974C18.3012 16.7974 18.5742 16.9101 18.7996 17.1354L20.4897 18.7736C20.7151 18.9989 20.8277 19.2806 20.8277 19.6186C20.8277 19.9567 20.7151 20.2384 20.4897 20.4637C20.2644 20.7064 19.9783 20.8277 19.6316 20.8277C19.2849 20.8277 19.0076 20.7064 18.7996 20.4637ZM1.1701 13.1831C0.840737 13.1831 0.56338 13.0704 0.338028 12.8451C0.112676 12.6197 0 12.3424 0 12.013C0 11.6836 0.112676 11.402 0.338028 11.1679C0.56338 10.9339 0.840737 10.8169 1.1701 10.8169H3.51029C3.83965 10.8169 4.12134 10.9339 4.35536 11.1679C4.58938 11.402 4.70639 11.6836 4.70639 12.013C4.70639 12.3424 4.58938 12.6197 4.35536 12.8451C4.12134 13.0704 3.83965 13.1831 3.51029 13.1831H1.1701ZM3.53629 20.4637C3.29361 20.2557 3.17226 19.9827 3.17226 19.6446C3.17226 19.3066 3.29361 19.0249 3.53629 18.7996L5.20043 17.1354C5.44312 16.9101 5.72481 16.7974 6.0455 16.7974C6.3662 16.7974 6.63922 16.9101 6.86457 17.1354C7.08992 17.3781 7.2026 17.6685 7.2026 18.0065C7.2026 18.3445 7.08992 18.6176 6.86457 18.8256L5.22644 20.4637C5.00108 20.7064 4.71939 20.8277 4.38137 20.8277C4.04334 20.8277 3.76165 20.7064 3.53629 20.4637ZM11.987 18.0975C10.2882 18.0975 8.8494 17.5081 7.67064 16.3294C6.49187 15.1506 5.90249 13.7118 5.90249 12.013C5.90249 10.3142 6.49187 8.87541 7.67064 7.69664C8.8494 6.51788 10.2882 5.92849 11.987 5.92849C13.6858 5.92849 15.1246 6.51788 16.3034 7.69664C17.4821 8.87541 18.0715 10.3142 18.0715 12.013C18.0715 13.7118 17.4821 15.1506 16.3034 16.3294C15.1246 17.5081 13.6858 18.0975 11.987 18.0975ZM11.987 15.7053C12.9751 15.7053 13.8418 15.3369 14.5872 14.6002C15.3326 13.8635 15.7053 13.0011 15.7053 12.013C15.7053 11.0249 15.3326 10.1582 14.5872 9.41279C13.8418 8.66739 12.9751 8.29469 11.987 8.29469C10.9989 8.29469 10.1365 8.66739 9.39978 9.41279C8.66306 10.1582 8.29469 11.0249 8.29469 12.013C8.29469 13.0011 8.66306 13.8635 9.39978 14.6002C10.1365 15.3369 10.9989 15.7053 11.987 15.7053Z" fill="#FF903E"/>
</svg>
