<svg width="33" height="23" viewBox="0 0 33 23" fill="none" xmlns="http://www.w3.org/2000/svg">
<path d="M9.09323 14.3249C8.44086 14.8803 7.46219 14.8879 6.86031 14.2782C6.26934 13.6795 6.26506 12.7114 6.89677 12.1559C8.15921 11.0458 9.466 10.1776 10.8171 9.55138C12.5657 8.74096 14.4457 8.33575 16.4571 8.33575C18.4686 8.33575 20.3486 8.74096 22.0971 9.55138C23.4483 10.1776 24.7551 11.0458 26.0175 12.1559C26.6492 12.7114 26.6449 13.6795 26.054 14.2782C25.4521 14.8879 24.4734 14.8803 23.8211 14.3249C22.8011 13.4566 21.775 12.8032 20.7429 12.3647C19.3257 11.7627 17.8971 11.4616 16.4571 11.4616C15.0171 11.4616 13.5886 11.7627 12.1714 12.3647C11.1393 12.8032 10.1132 13.4566 9.09323 14.3249ZM3.30178 8.47233C2.65314 9.03279 1.67507 9.02539 1.07284 8.41532C0.476279 7.81099 0.467789 6.83687 1.09356 6.26283C2.9614 4.54941 5.07117 3.13329 7.42286 2.01447C10.2457 0.67149 13.2571 0 16.4571 0C19.6571 0 22.6686 0.67149 25.4914 2.01447C27.8431 3.13329 29.9529 4.54941 31.8207 6.26283C32.4465 6.83687 32.438 7.81099 31.8414 8.41532C31.2392 9.02539 30.2611 9.03279 29.6125 8.47233C27.9181 7.00822 26.0986 5.80495 24.1543 4.86252C21.7657 3.70478 19.2 3.1259 16.4571 3.1259C13.7143 3.1259 11.1486 3.70478 8.76 4.86252C6.81564 5.80495 4.99623 7.00822 3.30178 8.47233ZM13.8744 21.3659C15.2925 22.8122 17.6218 22.8122 19.0399 21.3659L19.5778 20.8174C20.6619 19.7117 20.6657 17.875 19.2514 17.2446C18.3943 16.8625 17.4629 16.6715 16.4571 16.6715C15.4514 16.6715 14.52 16.8625 13.6629 17.2446C12.2486 17.875 12.2524 19.7117 13.3365 20.8174L13.8744 21.3659Z" fill="#C5CED7"/>
</svg>
